PathFileType	4	(X/Y/Z)	 0.11m3min.trc
DataRate	CameraRate	NumFrames	NumMarkers	Units	OrigDataRate	OrigDataStartFrame	OrigNumFrames
200	200	11	35	m	200	1	1000
Frame#	Time	C7			LSH			RSH			MAN			RASI			LASI			HIPR			HIPL			RPSI			LPSI			COX			RTHI1			RTHI2			RTHI3			RTHI4			RSHA1			RSHA2			RSHA3			RSHA4			RHEEL			RMET5			RMET1			RTOE			LTHI1			LTHI2			LTHI3			LTHI4			LSHA1			LSHA2			LSHA3			LSHA4			LHEEL			LMET5			LMET1			LTOE			
		X1	Y1	Z1	X2	Y2	Z2	X3	Y3	Z3	X4	Y4	Z4	X5	Y5	Z5	X6	Y6	Z6	X7	Y7	Z7	X8	Y8	Z8	X9	Y9	Z9	X10	Y10	Z10	X11	Y11	Z11	X12	Y12	Z12	X13	Y13	Z13	X14	Y14	Z14	X15	Y15	Z15	X16	Y16	Z16	X17	Y17	Z17	X18	Y18	Z18	X19	Y19	Z19	X20	Y20	Z20	X21	Y21	Z21	X22	Y22	Z22	X23	Y23	Z23	X24	Y24	Z24	X25	Y25	Z25	X26	Y26	Z26	X27	Y27	Z27	X28	Y28	Z28	X29	Y29	Z29	X30	Y30	Z30	X31	Y31	Z31	X32	Y32	Z32	X33	Y33	Z33	X34	Y34	Z34	X35	Y35	Z35	
1	0.0050	-0.338513	1.301294	-0.567422	-0.271522	1.278694	-0.729659	-0.276654	1.281083	-0.395673	-0.216424	1.253441	-0.564532	-0.208542	0.858353	-0.472159	-0.214031	0.865698	-0.672438	-0.254770	0.900289	-0.423667	-0.264831	0.907782	-0.695840	-0.355627	0.902033	-0.493031	-0.352974	0.912276	-0.612014	-0.362001	0.908087	-0.553550	-0.270165	0.647721	-0.390135	-0.245547	0.593714	-0.395279	-0.186456	0.619169	-0.408200	-0.205566	0.677238	-0.405630	-0.303790	0.267472	-0.371933	-0.327835	0.231674	-0.371952	-0.275814	0.204605	-0.389249	-0.256919	0.240738	-0.391725	-0.457109	0.082643	-0.409285	-0.307156	0.027661	-0.357640	-0.281586	0.031667	-0.443449	-0.253441	0.025537	-0.433580	-0.289087	0.665313	-0.732334	-0.266483	0.607792	-0.735318	-0.204747	0.625883	-0.729598	-0.218549	0.684777	-0.725866	-0.356713	0.239526	-0.735476	-0.380948	0.207533	-0.730134	-0.326733	0.175922	-0.725564	-0.308597	0.215272	-0.732069	-0.480481	0.068877	-0.679348	-0.338250	0.026788	-0.767013	-0.293694	0.028357	-0.695332	-0.269449	0.021621	-0.713540	
2	0.0100	-0.338277	1.300904	-0.567636	-0.270272	1.277947	-0.729870	-0.277249	1.280482	-0.395677	-0.216020	1.252790	-0.564461	-0.208480	0.858156	-0.472199	-0.214001	0.866239	-0.672286	-0.254622	0.900201	-0.423747	-0.264270	0.909186	-0.695411	-0.355736	0.901544	-0.492788	-0.353083	0.912226	-0.611903	-0.361889	0.907716	-0.553484	-0.269841	0.647120	-0.390724	-0.245179	0.593085	-0.395987	-0.186267	0.618595	-0.409186	-0.205368	0.676678	-0.406348	-0.303257	0.267358	-0.372395	-0.327446	0.231736	-0.372102	-0.275611	0.204437	-0.389750	-0.256592	0.240432	-0.392416	-0.457192	0.082398	-0.408482	-0.306960	0.027706	-0.357501	-0.281691	0.031668	-0.443428	-0.253659	0.025243	-0.433638	-0.289479	0.665340	-0.732783	-0.266855	0.607833	-0.735691	-0.205134	0.625969	-0.729882	-0.218939	0.684812	-0.726224	-0.357647	0.238995	-0.735361	-0.381747	0.207007	-0.730021	-0.327365	0.175467	-0.725615	-0.309444	0.214963	-0.732116	-0.480756	0.067725	-0.679191	-0.338309	0.026679	-0.767035	-0.293698	0.028369	-0.695282	-0.269412	0.021622	-0.713559	
3	0.0150	-0.337949	1.301288	-0.568066	-0.269095	1.277983	-0.730092	-0.277629	1.280810	-0.395719	-0.215617	1.253083	-0.564408	-0.208220	0.858659	-0.472231	-0.213848	0.867454	-0.672231	-0.254326	0.900609	-0.423774	-0.263770	0.910882	-0.694896	-0.355686	0.901702	-0.492464	-0.353027	0.912870	-0.611723	-0.361468	0.907983	-0.553389	-0.269586	0.647285	-0.391282	-0.245027	0.593235	-0.396706	-0.186164	0.618682	-0.410008	-0.205178	0.676842	-0.407022	-0.303051	0.267630	-0.372612	-0.327257	0.231981	-0.372242	-0.275566	0.204629	-0.390203	-0.256525	0.240571	-0.392957	-0.457170	0.082438	-0.407755	-0.306777	0.027710	-0.357378	-0.281754	0.031677	-0.443396	-0.253790	0.025081	-0.433641	-0.289847	0.666226	-0.733302	-0.267335	0.608671	-0.736127	-0.205593	0.626704	-0.730158	-0.219244	0.685513	-0.726580	-0.358835	0.238772	-0.735456	-0.382748	0.206744	-0.730099	-0.328196	0.175462	-0.725757	-0.310505	0.215049	-0.732334	-0.480972	0.066890	-0.679186	-0.338356	0.026597	-0.767106	-0.293718	0.028388	-0.695269	-0.269406	0.021617	-0.713587	
4	0.0200	-0.337659	1.301900	-0.568505	-0.267954	1.278219	-0.730312	-0.278012	1.281389	-0.395744	-0.215217	1.253637	-0.564364	-0.207916	0.859339	-0.472275	-0.213656	0.868846	-0.672185	-0.254015	0.901156	-0.423783	-0.263290	0.912686	-0.694434	-0.355568	0.902086	-0.492156	-0.352928	0.913713	-0.611532	-0.361029	0.908476	-0.553275	-0.269358	0.647670	-0.391823	-0.244925	0.593592	-0.397391	-0.186090	0.618938	-0.410798	-0.204987	0.677187	-0.407676	-0.302927	0.267992	-0.372816	-0.327126	0.232307	-0.372371	-0.275558	0.204949	-0.390638	-0.256532	0.240857	-0.393465	-0.457119	0.082564	-0.407048	-0.306607	0.027711	-0.357255	-0.281800	0.031679	-0.443356	-0.253923	0.024917	-0.433644	-0.290206	0.667342	-0.733832	-0.267842	0.609726	-0.736584	-0.206074	0.627610	-0.730434	-0.219537	0.686397	-0.726918	-0.360090	0.238659	-0.735603	-0.383795	0.206575	-0.730228	-0.329067	0.175603	-0.725949	-0.311619	0.215271	-0.732597	-0.481172	0.066169	-0.679236	-0.338394	0.026523	-0.767188	-0.293746	0.028410	-0.695272	-0.269409	0.021614	-0.713616	
5	0.0250	-0.337367	1.303168	-0.569036	-0.266908	1.279090	-0.730529	-0.278292	1.282709	-0.395783	-0.214854	1.254948	-0.564334	-0.207464	0.860595	-0.472345	-0.213359	0.870786	-0.672204	-0.253612	0.902154	-0.423751	-0.262861	0.914788	-0.694021	-0.355281	0.903075	-0.491836	-0.352694	0.915146	-0.611309	-0.360436	0.909579	-0.553132	-0.269196	0.648714	-0.392335	-0.244980	0.594589	-0.398031	-0.186100	0.619741	-0.411470	-0.204802	0.678116	-0.408287	-0.303065	0.268675	-0.372901	-0.327173	0.232860	-0.372472	-0.275677	0.205631	-0.391017	-0.256749	0.241565	-0.393878	-0.456978	0.082945	-0.406405	-0.306453	0.027701	-0.357151	-0.281823	0.031689	-0.443319	-0.254026	0.024821	-0.433633	-0.290544	0.669149	-0.734404	-0.268432	0.611428	-0.737092	-0.206612	0.629043	-0.730707	-0.219778	0.687831	-0.727239	-0.361540	0.238857	-0.735913	-0.384992	0.206669	-0.730508	-0.330064	0.176136	-0.726247	-0.312889	0.215882	-0.733005	-0.481316	0.065759	-0.679433	-0.338412	0.026473	-0.767311	-0.293788	0.028438	-0.695314	-0.269434	0.021610	-0.713650	
6	0.0300	-0.337106	1.305018	-0.569542	-0.265996	1.280533	-0.730745	-0.278548	1.284681	-0.395825	-0.214630	1.256867	-0.564329	-0.206901	0.862349	-0.472460	-0.212957	0.873213	-0.672263	-0.253136	0.903616	-0.423688	-0.262474	0.917213	-0.693757	-0.354819	0.904682	-0.491568	-0.352339	0.917126	-0.611076	-0.359821	0.911310	-0.552954	-0.269088	0.650336	-0.392786	-0.245153	0.596128	-0.398583	-0.186172	0.620990	-0.412030	-0.204599	0.679537	-0.408831	-0.303420	0.269601	-0.372951	-0.327399	0.233649	-0.372525	-0.275902	0.206668	-0.391307	-0.257155	0.242667	-0.394187	-0.456752	0.083557	-0.405824	-0.306323	0.027688	-0.357083	-0.281849	0.031676	-0.443293	-0.254116	0.024699	-0.433635	-0.290860	0.671566	-0.734999	-0.269091	0.613703	-0.737645	-0.207203	0.630951	-0.730981	-0.219993	0.689772	-0.727530	-0.363142	0.239410	-0.736360	-0.386304	0.207056	-0.730919	-0.331143	0.177041	-0.726687	-0.314284	0.216894	-0.733546	-0.481403	0.065679	-0.679780	-0.338399	0.026443	-0.767461	-0.293846	0.028466	-0.695403	-0.269481	0.021613	-0.713691	
7	0.0350	-0.336891	1.307551	-0.570022	-0.265235	1.282635	-0.730947	-0.278784	1.287396	-0.395873	-0.214472	1.259526	-0.564344	-0.206209	0.864721	-0.472647	-0.212450	0.876184	-0.672365	-0.252564	0.905665	-0.423618	-0.262101	0.920043	-0.693666	-0.354172	0.907009	-0.491360	-0.351844	0.919735	-0.610865	-0.359115	0.913718	-0.552780	-0.269028	0.652647	-0.393185	-0.245446	0.598326	-0.399048	-0.186328	0.622835	-0.412527	-0.204398	0.681553	-0.409327	-0.304029	0.270928	-0.372974	-0.327818	0.234800	-0.372536	-0.276256	0.208179	-0.391506	-0.257758	0.244286	-0.394381	-0.456429	0.084483	-0.405312	-0.306183	0.027700	-0.357042	-0.281847	0.031660	-0.443265	-0.254177	0.024614	-0.433669	-0.291164	0.674648	-0.735626	-0.269825	0.616615	-0.738245	-0.207850	0.633394	-0.731274	-0.220182	0.692269	-0.727808	-0.364887	0.240393	-0.736947	-0.387718	0.207844	-0.731479	-0.332284	0.178404	-0.727268	-0.315792	0.218399	-0.734237	-0.481412	0.066021	-0.680301	-0.338354	0.026440	-0.767652	-0.293919	0.028497	-0.695545	-0.269550	0.021619	-0.713739	
8	0.0400	-0.336711	1.310688	-0.570400	-0.264644	1.285377	-0.731127	-0.278993	1.290780	-0.395927	-0.214449	1.262833	-0.564378	-0.205407	0.867702	-0.472919	-0.211856	0.879680	-0.672519	-0.251871	0.908391	-0.423582	-0.261716	0.923315	-0.693766	-0.353353	0.910041	-0.491231	-0.351219	0.922952	-0.610705	-0.358334	0.916784	-0.552640	-0.268996	0.655652	-0.393533	-0.245815	0.601165	-0.399398	-0.186532	0.625269	-0.412955	-0.204189	0.684148	-0.409776	-0.304861	0.272663	-0.373017	-0.328430	0.236356	-0.372515	-0.276732	0.210194	-0.391582	-0.258528	0.246428	-0.394453	-0.455999	0.085719	-0.404860	-0.306024	0.027748	-0.357043	-0.281815	0.031631	-0.443271	-0.254233	0.024542	-0.433742	-0.291469	0.678349	-0.736271	-0.270621	0.620128	-0.738885	-0.208547	0.636359	-0.731591	-0.220361	0.695304	-0.728081	-0.366727	0.241849	-0.737661	-0.389190	0.209064	-0.732168	-0.333448	0.180267	-0.727999	-0.317375	0.220423	-0.735042	-0.481322	0.066822	-0.680992	-0.338271	0.026451	-0.767869	-0.293998	0.028532	-0.695739	-0.269638	0.021629	-0.713796	
9	0.0450	-0.336573	1.314385	-0.570661	-0.264244	1.288758	-0.731289	-0.279171	1.294760	-0.396028	-0.214561	1.266730	-0.564431	-0.204525	0.871289	-0.473282	-0.211191	0.883668	-0.672718	-0.251034	0.911846	-0.423617	-0.261278	0.927070	-0.694034	-0.352393	0.913738	-0.491190	-0.350474	0.926753	-0.610621	-0.357509	0.920480	-0.552551	-0.268956	0.659283	-0.393799	-0.246225	0.604620	-0.399649	-0.186779	0.628283	-0.413342	-0.203958	0.687312	-0.410192	-0.305940	0.274925	-0.372940	-0.329218	0.238375	-0.372426	-0.277319	0.212728	-0.391525	-0.259450	0.249117	-0.394385	-0.455449	0.087289	-0.404473	-0.305829	0.027841	-0.357096	-0.281770	0.031591	-0.443307	-0.254270	0.024481	-0.433847	-0.291784	0.682610	-0.736922	-0.271467	0.624193	-0.739552	-0.209288	0.639829	-0.731936	-0.220547	0.698856	-0.728365	-0.368608	0.243818	-0.738486	-0.390685	0.210771	-0.732969	-0.334593	0.182598	-0.728871	-0.318987	0.222989	-0.735980	-0.481109	0.068109	-0.681841	-0.338147	0.026481	-0.768105	-0.294079	0.028573	-0.695989	-0.269740	0.021643	-0.713862	
10	0.0500	-0.336463	1.318599	-0.570799	-0.264028	1.292748	-0.731428	-0.279317	1.299311	-0.396156	-0.214743	1.271206	-0.564504	-0.203585	0.875462	-0.473726	-0.210480	0.888118	-0.672957	-0.250037	0.916039	-0.423765	-0.260750	0.931326	-0.694410	-0.351340	0.918054	-0.491243	-0.349630	0.931096	-0.610619	-0.356609	0.924733	-0.552543	-0.268878	0.663527	-0.393979	-0.246642	0.608677	-0.399806	-0.187036	0.631872	-0.413723	-0.203700	0.691030	-0.410588	-0.307242	0.277748	-0.372709	-0.330148	0.240879	-0.372273	-0.277999	0.215777	-0.391325	-0.260486	0.252333	-0.394148	-0.454767	0.089201	-0.404142	-0.305587	0.027984	-0.357186	-0.281689	0.031539	-0.443333	-0.254274	0.024437	-0.433967	-0.292116	0.687381	-0.737583	-0.272354	0.628775	-0.740246	-0.210067	0.643789	-0.732316	-0.220752	0.702895	-0.728671	-0.370487	0.246308	-0.739398	-0.392160	0.212998	-0.733865	-0.335700	0.185444	-0.729868	-0.320601	0.226082	-0.737013	-0.480748	0.069905	-0.682828	-0.337977	0.026532	-0.768354	-0.294155	0.028627	-0.696293	-0.269855	0.021663	-0.713939	
11	0.0550	-0.336440	1.323264	-0.570845	-0.263984	1.297307	-0.731542	-0.279389	1.304347	-0.396346	-0.214946	1.276234	-0.564590	-0.202610	0.880193	-0.474245	-0.209753	0.892999	-0.673239	-0.248886	0.920934	-0.424054	-0.260110	0.936096	-0.694831	-0.350211	0.922903	-0.491364	-0.348713	0.935935	-0.610699	-0.355656	0.929498	-0.552616	-0.268749	0.668365	-0.394080	-0.247036	0.613322	-0.399862	-0.187289	0.636007	-0.414094	-0.203407	0.695285	-0.410986	-0.308726	0.281117	-0.372293	-0.331181	0.243877	-0.372035	-0.278752	0.219327	-0.390981	-0.261607	0.256068	-0.393768	-0.453933	0.091455	-0.403850	-0.305296	0.028179	-0.357311	-0.281566	0.031501	-0.443343	-0.254288	0.024423	-0.434066	-0.292473	0.692614	-0.738244	-0.273267	0.633829	-0.740955	-0.210875	0.648210	-0.732723	-0.220980	0.707389	-0.728991	-0.372334	0.249300	-0.740380	-0.393587	0.215734	-0.734831	-0.336748	0.188805	-0.730970	-0.322180	0.229700	-0.738137	-0.480209	0.072201	-0.683925	-0.337760	0.026609	-0.768606	-0.294219	0.028708	-0.696652	-0.269978	0.021686	-0.714031	
